<svg width="145" height="27" viewBox="0 0 145 27" fill="none" xmlns="http://www.w3.org/2000/svg">
<path d="M11.0497 20H9.77174L2.82373 9.398V20H1.54573V7.328H2.82373L9.77174 17.948V7.328H11.0497V20ZM18.0641 19.082C18.9521 19.082 19.6961 18.86 20.2961 18.416C20.8961 17.972 21.2561 17.372 21.3761 16.616H22.7081C22.5281 17.66 22.0301 18.506 21.2141 19.154C20.3981 19.802 19.3661 20.126 18.1181 20.126C17.1821 20.126 16.3481 19.928 15.6161 19.532C14.8961 19.124 14.3321 18.542 13.9241 17.786C13.5161 17.018 13.3121 16.118 13.3121 15.086C13.3121 14.054 13.5161 13.16 13.9241 12.404C14.3321 11.636 14.8961 11.054 15.6161 10.658C16.3481 10.25 17.1821 10.046 18.1181 10.046C19.0781 10.046 19.9061 10.25 20.6021 10.658C21.3101 11.054 21.8441 11.588 22.2041 12.26C22.5761 12.932 22.7621 13.664 22.7621 14.456C22.7621 14.792 22.7381 15.098 22.6901 15.374H14.5541C14.5661 16.202 14.7341 16.898 15.0581 17.462C15.3941 18.014 15.8261 18.422 16.3541 18.686C16.8821 18.95 17.4521 19.082 18.0641 19.082ZM18.1181 11.072C17.4821 11.072 16.9001 11.204 16.3721 11.468C15.8441 11.732 15.4121 12.14 15.0761 12.692C14.7521 13.232 14.5781 13.91 14.5541 14.726H21.5021C21.5501 13.922 21.4181 13.244 21.1061 12.692C20.7941 12.14 20.3741 11.732 19.8461 11.468C19.3181 11.204 18.7421 11.072 18.1181 11.072ZM30.5741 20L27.8741 15.986L25.3721 20H23.9861L27.1901 14.942L23.9861 10.172H25.4261L28.0541 14.078L30.5201 10.172H31.9061L28.7201 15.086L32.0141 20H30.5741ZM38.1074 18.884V20H36.9374C35.9894 20 35.2814 19.778 34.8134 19.334C34.3454 18.878 34.1114 18.116 34.1114 17.048V11.27H32.6174V10.172H34.1114V7.688H35.3894V10.172H38.0894V11.27H35.3894V17.066C35.3894 17.762 35.5154 18.242 35.7674 18.506C36.0194 18.758 36.4634 18.884 37.0994 18.884H38.1074ZM50.1142 10.046C51.0142 10.046 51.8062 10.25 52.4902 10.658C53.1862 11.054 53.7262 11.636 54.1102 12.404C54.5062 13.16 54.7042 14.054 54.7042 15.086C54.7042 16.106 54.5062 17 54.1102 17.768C53.7262 18.524 53.1862 19.106 52.4902 19.514C51.7942 19.922 51.0022 20.126 50.1142 20.126C49.1062 20.126 48.2542 19.868 47.5582 19.352C46.8622 18.836 46.3822 18.152 46.1182 17.3V24.644H44.8582V10.172H46.1182V12.872C46.3822 12.02 46.8622 11.336 47.5582 10.82C48.2542 10.304 49.1062 10.046 50.1142 10.046ZM49.7722 11.162C49.0762 11.162 48.4462 11.324 47.8822 11.648C47.3302 11.972 46.8982 12.434 46.5862 13.034C46.2742 13.622 46.1182 14.306 46.1182 15.086C46.1182 15.866 46.2742 16.556 46.5862 17.156C46.8982 17.744 47.3302 18.2 47.8822 18.524C48.4462 18.848 49.0762 19.01 49.7722 19.01C50.8882 19.01 51.7762 18.662 52.4362 17.966C53.0962 17.258 53.4262 16.298 53.4262 15.086C53.4262 13.874 53.0962 12.92 52.4362 12.224C51.7762 11.516 50.8882 11.162 49.7722 11.162ZM58.2476 12.206C58.5356 11.498 58.9976 10.952 59.6336 10.568C60.2696 10.184 61.0436 9.992 61.9556 9.992V11.36H61.5416C60.5936 11.36 59.8076 11.618 59.1836 12.134C58.5596 12.638 58.2476 13.466 58.2476 14.618V20H56.9696V10.172H58.2476V12.206ZM68.0777 10.046C69.0137 10.046 69.8477 10.25 70.5797 10.658C71.3237 11.054 71.9057 11.636 72.3257 12.404C72.7457 13.16 72.9557 14.054 72.9557 15.086C72.9557 16.118 72.7457 17.012 72.3257 17.768C71.9057 18.524 71.3237 19.106 70.5797 19.514C69.8477 19.922 69.0137 20.126 68.0777 20.126C67.1417 20.126 66.3017 19.922 65.5577 19.514C64.8137 19.106 64.2257 18.524 63.7937 17.768C63.3737 17 63.1637 16.106 63.1637 15.086C63.1637 14.054 63.3737 13.16 63.7937 12.404C64.2257 11.636 64.8137 11.054 65.5577 10.658C66.3017 10.25 67.1417 10.046 68.0777 10.046ZM68.0777 11.144C67.4297 11.144 66.8297 11.288 66.2777 11.576C65.7257 11.864 65.2817 12.308 64.9457 12.908C64.6097 13.496 64.4417 14.222 64.4417 15.086C64.4417 15.95 64.6097 16.676 64.9457 17.264C65.2817 17.852 65.7257 18.29 66.2777 18.578C66.8297 18.866 67.4297 19.01 68.0777 19.01C68.7137 19.01 69.3017 18.866 69.8417 18.578C70.3937 18.29 70.8377 17.852 71.1737 17.264C71.5097 16.676 71.6777 15.95 71.6777 15.086C71.6777 14.222 71.5097 13.496 71.1737 12.908C70.8377 12.308 70.3937 11.864 69.8417 11.576C69.3017 11.288 68.7137 11.144 68.0777 11.144ZM75.9897 8.102C75.7137 8.102 75.4857 8.024 75.3057 7.868C75.1377 7.712 75.0537 7.508 75.0537 7.256C75.0537 6.992 75.1377 6.782 75.3057 6.626C75.4857 6.47 75.7137 6.392 75.9897 6.392C76.2657 6.392 76.4877 6.47 76.6557 6.626C76.8237 6.782 76.9077 6.992 76.9077 7.256C76.9077 7.508 76.8237 7.712 76.6557 7.868C76.4877 8.024 76.2657 8.102 75.9897 8.102ZM73.3617 23.528H74.0457C74.5017 23.528 74.8317 23.426 75.0357 23.222C75.2517 23.018 75.3597 22.664 75.3597 22.16V10.172H76.6197V22.232C76.6197 23.84 75.8037 24.644 74.1717 24.644H73.3617V23.528ZM83.6481 19.082C84.5361 19.082 85.2801 18.86 85.8801 18.416C86.4801 17.972 86.8401 17.372 86.9601 16.616H88.2921C88.1121 17.66 87.6141 18.506 86.7981 19.154C85.9821 19.802 84.9501 20.126 83.7021 20.126C82.7661 20.126 81.9321 19.928 81.2001 19.532C80.4801 19.124 79.9161 18.542 79.5081 17.786C79.1001 17.018 78.8961 16.118 78.8961 15.086C78.8961 14.054 79.1001 13.16 79.5081 12.404C79.9161 11.636 80.4801 11.054 81.2001 10.658C81.9321 10.25 82.7661 10.046 83.7021 10.046C84.6621 10.046 85.4901 10.25 86.1861 10.658C86.8941 11.054 87.4281 11.588 87.7881 12.26C88.1601 12.932 88.3461 13.664 88.3461 14.456C88.3461 14.792 88.3221 15.098 88.2741 15.374H80.1381C80.1501 16.202 80.3181 16.898 80.6421 17.462C80.9781 18.014 81.4101 18.422 81.9381 18.686C82.4661 18.95 83.0361 19.082 83.6481 19.082ZM83.7021 11.072C83.0661 11.072 82.4841 11.204 81.9561 11.468C81.4281 11.732 80.9961 12.14 80.6601 12.692C80.3361 13.232 80.1621 13.91 80.1381 14.726H87.0861C87.1341 13.922 87.0021 13.244 86.6901 12.692C86.3781 12.14 85.9581 11.732 85.4301 11.468C84.9021 11.204 84.3261 11.072 83.7021 11.072ZM94.9521 10.046C96.2001 10.046 97.2321 10.376 98.0481 11.036C98.8761 11.696 99.3801 12.572 99.5601 13.664H98.2461C98.1141 12.884 97.7481 12.272 97.1481 11.828C96.5481 11.372 95.8101 11.144 94.9341 11.144C94.2981 11.144 93.7101 11.288 93.1701 11.576C92.6421 11.864 92.2161 12.308 91.8921 12.908C91.5801 13.496 91.4241 14.222 91.4241 15.086C91.4241 15.95 91.5801 16.682 91.8921 17.282C92.2161 17.87 92.6421 18.308 93.1701 18.596C93.7101 18.884 94.2981 19.028 94.9341 19.028C95.8101 19.028 96.5481 18.806 97.1481 18.362C97.7481 17.906 98.1141 17.288 98.2461 16.508H99.5601C99.3801 17.6 98.8761 18.476 98.0481 19.136C97.2321 19.796 96.2001 20.126 94.9521 20.126C94.0161 20.126 93.1821 19.928 92.4501 19.532C91.7301 19.124 91.1661 18.542 90.7581 17.786C90.3501 17.018 90.1461 16.118 90.1461 15.086C90.1461 14.054 90.3501 13.16 90.7581 12.404C91.1661 11.636 91.7301 11.054 92.4501 10.658C93.1821 10.25 94.0161 10.046 94.9521 10.046ZM106.293 18.884V20H105.123C104.175 20 103.467 19.778 102.999 19.334C102.531 18.878 102.297 18.116 102.297 17.048V11.27H100.803V10.172H102.297V7.688H103.575V10.172H106.275V11.27H103.575V17.066C103.575 17.762 103.701 18.242 103.953 18.506C104.205 18.758 104.649 18.884 105.285 18.884H106.293Z" fill="#1A2236"/>
<path d="M139.742 11.6265L134.483 6.36758L135.898 4.95337L143.571 12.6265L135.898 20.2996L134.483 18.8854L139.742 13.6265H123L123 11.6265H139.742Z" fill="#1A2236"/>
</svg>
