<svg width="183" height="27" viewBox="0 0 183 27" fill="none" xmlns="http://www.w3.org/2000/svg">
<path d="M42.646 14.708V20H41.368V7.31H45.166C46.594 7.31 47.656 7.64 48.352 8.3C49.06 8.96 49.414 9.866 49.414 11.018C49.414 12.194 49.048 13.106 48.316 13.754C47.596 14.39 46.546 14.708 45.166 14.708H42.646ZM45.058 13.628C46.15 13.628 46.936 13.406 47.416 12.962C47.896 12.506 48.136 11.858 48.136 11.018C48.136 10.154 47.896 9.5 47.416 9.056C46.936 8.6 46.15 8.372 45.058 8.372H42.646V13.628H45.058ZM52.6831 12.206C52.9711 11.498 53.4331 10.952 54.0691 10.568C54.7051 10.184 55.4791 9.992 56.3911 9.992V11.36H55.9771C55.0291 11.36 54.2431 11.618 53.6191 12.134C52.9951 12.638 52.6831 13.466 52.6831 14.618V20H51.4051V10.172H52.6831V12.206ZM62.3512 19.082C63.2392 19.082 63.9832 18.86 64.5832 18.416C65.1832 17.972 65.5432 17.372 65.6632 16.616H66.9952C66.8152 17.66 66.3172 18.506 65.5012 19.154C64.6852 19.802 63.6532 20.126 62.4052 20.126C61.4692 20.126 60.6352 19.928 59.9032 19.532C59.1832 19.124 58.6192 18.542 58.2112 17.786C57.8032 17.018 57.5992 16.118 57.5992 15.086C57.5992 14.054 57.8032 13.16 58.2112 12.404C58.6192 11.636 59.1832 11.054 59.9032 10.658C60.6352 10.25 61.4692 10.046 62.4052 10.046C63.3652 10.046 64.1932 10.25 64.8892 10.658C65.5972 11.054 66.1312 11.588 66.4912 12.26C66.8632 12.932 67.0492 13.664 67.0492 14.456C67.0492 14.792 67.0252 15.098 66.9772 15.374H58.8412C58.8532 16.202 59.0212 16.898 59.3452 17.462C59.6812 18.014 60.1132 18.422 60.6412 18.686C61.1692 18.95 61.7392 19.082 62.3512 19.082ZM62.4052 11.072C61.7692 11.072 61.1872 11.204 60.6592 11.468C60.1312 11.732 59.6992 12.14 59.3632 12.692C59.0392 13.232 58.8652 13.91 58.8412 14.726H65.7892C65.8372 13.922 65.7052 13.244 65.3932 12.692C65.0812 12.14 64.6612 11.732 64.1332 11.468C63.6052 11.204 63.0292 11.072 62.4052 11.072ZM72.9532 18.578L76.2472 10.172H77.6152L73.6552 20H72.2152L68.2552 10.172H69.6232L72.9532 18.578ZM78.996 7.256C78.996 6.992 79.08 6.782 79.248 6.626C79.428 6.47 79.656 6.392 79.932 6.392C80.208 6.392 80.43 6.47 80.598 6.626C80.766 6.782 80.85 6.992 80.85 7.256C80.85 7.508 80.766 7.712 80.598 7.868C80.43 8.024 80.208 8.102 79.932 8.102C79.656 8.102 79.428 8.024 79.248 7.868C79.08 7.712 78.996 7.508 78.996 7.256ZM80.562 10.172V20H79.284V10.172H80.562ZM87.7378 10.046C88.6738 10.046 89.5078 10.25 90.2398 10.658C90.9838 11.054 91.5658 11.636 91.9858 12.404C92.4058 13.16 92.6158 14.054 92.6158 15.086C92.6158 16.118 92.4058 17.012 91.9858 17.768C91.5658 18.524 90.9838 19.106 90.2398 19.514C89.5078 19.922 88.6738 20.126 87.7378 20.126C86.8018 20.126 85.9618 19.922 85.2178 19.514C84.4738 19.106 83.8858 18.524 83.4538 17.768C83.0338 17 82.8238 16.106 82.8238 15.086C82.8238 14.054 83.0338 13.16 83.4538 12.404C83.8858 11.636 84.4738 11.054 85.2178 10.658C85.9618 10.25 86.8018 10.046 87.7378 10.046ZM87.7378 11.144C87.0898 11.144 86.4898 11.288 85.9378 11.576C85.3858 11.864 84.9418 12.308 84.6058 12.908C84.2698 13.496 84.1018 14.222 84.1018 15.086C84.1018 15.95 84.2698 16.676 84.6058 17.264C84.9418 17.852 85.3858 18.29 85.9378 18.578C86.4898 18.866 87.0898 19.01 87.7378 19.01C88.3738 19.01 88.9618 18.866 89.5018 18.578C90.0538 18.29 90.4978 17.852 90.8338 17.264C91.1698 16.676 91.3378 15.95 91.3378 15.086C91.3378 14.222 91.1698 13.496 90.8338 12.908C90.4978 12.308 90.0538 11.864 89.5018 11.576C88.9618 11.288 88.3738 11.144 87.7378 11.144ZM103.354 10.172V20H102.094V17.57C101.842 18.422 101.386 19.07 100.726 19.514C100.066 19.958 99.3098 20.18 98.4578 20.18C97.3058 20.18 96.3698 19.82 95.6498 19.1C94.9418 18.368 94.5878 17.3 94.5878 15.896V10.172H95.8478V15.788C95.8478 16.868 96.1178 17.696 96.6578 18.272C97.1978 18.836 97.9358 19.118 98.8718 19.118C99.8558 19.118 100.636 18.806 101.212 18.182C101.8 17.546 102.094 16.616 102.094 15.392V10.172H103.354ZM109.078 10.046C110.146 10.046 111.004 10.328 111.652 10.892C112.3 11.456 112.696 12.218 112.84 13.178H111.634C111.562 12.542 111.298 12.02 110.842 11.612C110.398 11.192 109.798 10.982 109.042 10.982C108.394 10.982 107.884 11.144 107.512 11.468C107.152 11.78 106.972 12.2 106.972 12.728C106.972 13.124 107.086 13.442 107.314 13.682C107.554 13.922 107.848 14.108 108.196 14.24C108.544 14.36 109.012 14.486 109.6 14.618C110.32 14.786 110.896 14.96 111.328 15.14C111.772 15.308 112.15 15.578 112.462 15.95C112.774 16.322 112.93 16.826 112.93 17.462C112.93 18.242 112.636 18.884 112.048 19.388C111.472 19.88 110.704 20.126 109.744 20.126C108.616 20.126 107.692 19.85 106.972 19.298C106.252 18.734 105.826 17.966 105.694 16.994H106.918C106.99 17.642 107.272 18.17 107.764 18.578C108.256 18.986 108.922 19.19 109.762 19.19C110.386 19.19 110.872 19.028 111.22 18.704C111.568 18.38 111.742 17.96 111.742 17.444C111.742 17.024 111.622 16.688 111.382 16.436C111.142 16.184 110.842 15.998 110.482 15.878C110.134 15.746 109.654 15.608 109.042 15.464C108.334 15.296 107.764 15.128 107.332 14.96C106.912 14.792 106.552 14.534 106.252 14.186C105.952 13.826 105.802 13.34 105.802 12.728C105.802 11.924 106.096 11.276 106.684 10.784C107.272 10.292 108.07 10.046 109.078 10.046ZM125.163 10.046C126.063 10.046 126.855 10.25 127.539 10.658C128.235 11.054 128.775 11.636 129.159 12.404C129.555 13.16 129.753 14.054 129.753 15.086C129.753 16.106 129.555 17 129.159 17.768C128.775 18.524 128.235 19.106 127.539 19.514C126.843 19.922 126.051 20.126 125.163 20.126C124.155 20.126 123.303 19.868 122.607 19.352C121.911 18.836 121.431 18.152 121.167 17.3V24.644H119.907V10.172H121.167V12.872C121.431 12.02 121.911 11.336 122.607 10.82C123.303 10.304 124.155 10.046 125.163 10.046ZM124.821 11.162C124.125 11.162 123.495 11.324 122.931 11.648C122.379 11.972 121.947 12.434 121.635 13.034C121.323 13.622 121.167 14.306 121.167 15.086C121.167 15.866 121.323 16.556 121.635 17.156C121.947 17.744 122.379 18.2 122.931 18.524C123.495 18.848 124.125 19.01 124.821 19.01C125.937 19.01 126.825 18.662 127.485 17.966C128.145 17.258 128.475 16.298 128.475 15.086C128.475 13.874 128.145 12.92 127.485 12.224C126.825 11.516 125.937 11.162 124.821 11.162ZM133.296 12.206C133.584 11.498 134.046 10.952 134.682 10.568C135.318 10.184 136.092 9.992 137.004 9.992V11.36H136.59C135.642 11.36 134.856 11.618 134.232 12.134C133.608 12.638 133.296 13.466 133.296 14.618V20H132.018V10.172H133.296V12.206ZM143.127 10.046C144.063 10.046 144.897 10.25 145.629 10.658C146.373 11.054 146.955 11.636 147.375 12.404C147.795 13.16 148.005 14.054 148.005 15.086C148.005 16.118 147.795 17.012 147.375 17.768C146.955 18.524 146.373 19.106 145.629 19.514C144.897 19.922 144.063 20.126 143.127 20.126C142.191 20.126 141.351 19.922 140.607 19.514C139.863 19.106 139.275 18.524 138.843 17.768C138.423 17 138.213 16.106 138.213 15.086C138.213 14.054 138.423 13.16 138.843 12.404C139.275 11.636 139.863 11.054 140.607 10.658C141.351 10.25 142.191 10.046 143.127 10.046ZM143.127 11.144C142.479 11.144 141.879 11.288 141.327 11.576C140.775 11.864 140.331 12.308 139.995 12.908C139.659 13.496 139.491 14.222 139.491 15.086C139.491 15.95 139.659 16.676 139.995 17.264C140.331 17.852 140.775 18.29 141.327 18.578C141.879 18.866 142.479 19.01 143.127 19.01C143.763 19.01 144.351 18.866 144.891 18.578C145.443 18.29 145.887 17.852 146.223 17.264C146.559 16.676 146.727 15.95 146.727 15.086C146.727 14.222 146.559 13.496 146.223 12.908C145.887 12.308 145.443 11.864 144.891 11.576C144.351 11.288 143.763 11.144 143.127 11.144ZM151.038 8.102C150.762 8.102 150.534 8.024 150.354 7.868C150.186 7.712 150.102 7.508 150.102 7.256C150.102 6.992 150.186 6.782 150.354 6.626C150.534 6.47 150.762 6.392 151.038 6.392C151.314 6.392 151.536 6.47 151.704 6.626C151.872 6.782 151.956 6.992 151.956 7.256C151.956 7.508 151.872 7.712 151.704 7.868C151.536 8.024 151.314 8.102 151.038 8.102ZM148.41 23.528H149.094C149.55 23.528 149.88 23.426 150.084 23.222C150.3 23.018 150.408 22.664 150.408 22.16V10.172H151.668V22.232C151.668 23.84 150.852 24.644 149.22 24.644H148.41V23.528ZM158.697 19.082C159.585 19.082 160.329 18.86 160.929 18.416C161.529 17.972 161.889 17.372 162.009 16.616H163.341C163.161 17.66 162.663 18.506 161.847 19.154C161.031 19.802 159.999 20.126 158.751 20.126C157.815 20.126 156.981 19.928 156.249 19.532C155.529 19.124 154.965 18.542 154.557 17.786C154.149 17.018 153.945 16.118 153.945 15.086C153.945 14.054 154.149 13.16 154.557 12.404C154.965 11.636 155.529 11.054 156.249 10.658C156.981 10.25 157.815 10.046 158.751 10.046C159.711 10.046 160.539 10.25 161.235 10.658C161.943 11.054 162.477 11.588 162.837 12.26C163.209 12.932 163.395 13.664 163.395 14.456C163.395 14.792 163.371 15.098 163.323 15.374H155.187C155.199 16.202 155.367 16.898 155.691 17.462C156.027 18.014 156.459 18.422 156.987 18.686C157.515 18.95 158.085 19.082 158.697 19.082ZM158.751 11.072C158.115 11.072 157.533 11.204 157.005 11.468C156.477 11.732 156.045 12.14 155.709 12.692C155.385 13.232 155.211 13.91 155.187 14.726H162.135C162.183 13.922 162.051 13.244 161.739 12.692C161.427 12.14 161.007 11.732 160.479 11.468C159.951 11.204 159.375 11.072 158.751 11.072ZM170.001 10.046C171.249 10.046 172.281 10.376 173.097 11.036C173.925 11.696 174.429 12.572 174.609 13.664H173.295C173.163 12.884 172.797 12.272 172.197 11.828C171.597 11.372 170.859 11.144 169.983 11.144C169.347 11.144 168.759 11.288 168.219 11.576C167.691 11.864 167.265 12.308 166.941 12.908C166.629 13.496 166.473 14.222 166.473 15.086C166.473 15.95 166.629 16.682 166.941 17.282C167.265 17.87 167.691 18.308 168.219 18.596C168.759 18.884 169.347 19.028 169.983 19.028C170.859 19.028 171.597 18.806 172.197 18.362C172.797 17.906 173.163 17.288 173.295 16.508H174.609C174.429 17.6 173.925 18.476 173.097 19.136C172.281 19.796 171.249 20.126 170.001 20.126C169.065 20.126 168.231 19.928 167.499 19.532C166.779 19.124 166.215 18.542 165.807 17.786C165.399 17.018 165.195 16.118 165.195 15.086C165.195 14.054 165.399 13.16 165.807 12.404C166.215 11.636 166.779 11.054 167.499 10.658C168.231 10.25 169.065 10.046 170.001 10.046ZM181.342 18.884V20H180.172C179.224 20 178.516 19.778 178.048 19.334C177.58 18.878 177.346 18.116 177.346 17.048V11.27H175.852V10.172H177.346V7.688H178.624V10.172H181.324V11.27H178.624V17.066C178.624 17.762 178.75 18.242 179.002 18.506C179.254 18.758 179.698 18.884 180.334 18.884H181.342Z" fill="#1A2236"/>
<path d="M5.25773 11.6265L10.5166 6.36758L9.10242 4.95337L1.42932 12.6265L9.10242 20.2996L10.5166 18.8854L5.25777 13.6265H22L22 11.6265H5.25773Z" fill="#1A2236"/>
</svg>
